<svg xmlns="http://www.w3.org/2000/svg" width="304.462" height="219.061" viewBox="0 0 304.462 219.061">
  <g id="undraw_Gifts_re_97j6" transform="translate(0.001)">
    <path id="Path_1" data-name="Path 1" d="M352.874,346.792c.644.4,1.277.809,1.909,1.231a161.577,161.577,0,0,1,11.272,52.629q.146,3.131.148,6.252a156.888,156.888,0,0,1-6.738,46.065q-.358,1.179-.732,2.349c-.178.56-.36,1.125-.557,1.68l-.622.843c-.015.012-.027.033-.042.046-.083.113-.166.226-.241.336-.357.479-.719.955-1.076,1.434l.3.02.753.048,0,.005c-.253-.005-.511-.014-.766-.027-.093,0-.194,0-.288-.006s-.174-.007-.258-.008c-10.863-.294-21.98-.836-31.866-5.279-10.347-4.654-19.124-14.715-18.678-26.048a20.338,20.338,0,0,1,.672-4.392c.16-.6.349-1.188.552-1.776a21.416,21.416,0,0,1,36.742-6.725c-2.965-11.653-15.7-17.6-27.161-21.215s-24.383-7.393-30.245-17.893c-3.273-5.843-3.352-12.651-1.216-18.937.065-.188.133-.381.207-.571a31.25,31.25,0,0,1,15.069-17.107c13.112-6.492,29.045-4.2,42.48,1.593a77.466,77.466,0,0,1,10.385,5.452Z" transform="translate(-283.285 -281.173)" fill="#f2f2f2"/>
    <path id="Path_2" data-name="Path 2" d="M339.9,515.388a48.219,48.219,0,0,1,27.745,12.088,49.342,49.342,0,0,1,14.03,22.011c.152.484.291.967.421,1.453.26-.5.513-1,.763-1.5.161-.321.325-.648.481-.973-.179.56-.36,1.125-.557,1.68l-.622.844c-.015.012-.027.033-.042.045-.083.113-.166.226-.241.336-.357.479-.719.955-1.076,1.434l.3.02.753.048,0,.005c-.253-.005-.511-.014-.766-.027-.093,0-.194,0-.288-.006-.031-.147-.071-.292-.11-.437a46.59,46.59,0,0,0-50.02-35.29c.16-.6.349-1.188.552-1.776A49.834,49.834,0,0,1,339.9,515.388Z" transform="translate(-307.896 -374.317)" fill="#fff"/>
    <path id="Path_3" data-name="Path 3" d="M351.1,401.657a53.053,53.053,0,0,1,10.865,10.94,44.02,44.02,0,0,1,4.151,7.049c.551,1.148,1.052,2.329,1.5,3.523q.146,3.131.148,6.253a45.455,45.455,0,0,0-1.4-4.648c-.286-.836-.6-1.656-.94-2.467-3.779-9.077-10.625-16.244-18.7-21.693a115.122,115.122,0,0,0-28.293-13.462,130.577,130.577,0,0,0-31.277-6.242.936.936,0,0,1-.86-.967.805.805,0,0,1,.207-.571.669.669,0,0,1,.574-.183c1.313.1,2.623.2,3.933.341a132.124,132.124,0,0,1,31.9,7.363C332.844,390.516,342.673,395.216,351.1,401.657Z" transform="translate(-284.851 -303.69)" fill="#fff"/>
    <circle id="Ellipse_1" data-name="Ellipse 1" cx="3.642" cy="3.642" r="3.642" transform="translate(8.612 40.48)" fill="#f2f2f2"/>
    <rect id="Rectangle_17" data-name="Rectangle 17" width="165.346" height="140.832" transform="translate(70.678 77.748)" fill="#fff"/>
    <path id="Path_4" data-name="Path 4" d="M595.638,524.671H429.331V382.878H595.638Zm-165.345-.961H594.677V383.839H430.292Z" transform="translate(-359.133 -305.61)" fill="#3f3d56"/>
    <rect id="Rectangle_18" data-name="Rectangle 18" width="41.336" height="113.435" transform="translate(132.683 105.146)" fill="#6c63ff"/>
    <rect id="Rectangle_19" data-name="Rectangle 19" width="41.336" height="113.435" transform="translate(132.683 105.146)" fill="#6c63ff"/>
    <path id="Path_5" data-name="Path 5" d="M148.046,183.255V206.1l164.865,10.556-.486-28.194Z" transform="translate(-76.887 -95.172)" opacity="0.2"/>
    <rect id="Rectangle_20" data-name="Rectangle 20" width="184.572" height="40.375" transform="translate(61.065 64.771)" fill="#fff"/>
    <path id="Path_6" data-name="Path 6" d="M594.864,397.214H409.331V355.878H594.864Zm-184.572-.961H593.9V356.839H410.292Z" transform="translate(-348.746 -291.588)" fill="#3f3d56"/>
    <rect id="Rectangle_21" data-name="Rectangle 21" width="41.336" height="43.74" transform="translate(132.683 60.925)" fill="#6c63ff"/>
    <path id="Path_7" data-name="Path 7" d="M546.369,251.831c10.912,16.175.631,42.19.631,42.19s-27.972-.21-38.883-16.385-.631-42.19-.631-42.19S535.457,235.656,546.369,251.831Z" transform="translate(-397.443 -229.042)" fill="#6c63ff"/>
    <path id="Path_8" data-name="Path 8" d="M598.116,251.831c-10.912,16.175-.631,42.19-.631,42.19s27.972-.21,38.883-16.385.631-42.19.631-42.19S609.028,235.656,598.116,251.831Z" transform="translate(-444.185 -229.042)" fill="#6c63ff"/>
    <circle id="Ellipse_2" data-name="Ellipse 2" cx="4.326" cy="4.326" r="4.326" transform="translate(120.186 26.318)" fill="#3f3d56"/>
    <circle id="Ellipse_3" data-name="Ellipse 3" cx="4.326" cy="4.326" r="4.326" transform="translate(146.141 70.058)" fill="#3f3d56"/>
    <circle id="Ellipse_4" data-name="Ellipse 4" cx="4.326" cy="4.326" r="4.326" transform="translate(146.141 164.747)" fill="#3f3d56"/>
    <circle id="Ellipse_5" data-name="Ellipse 5" cx="2.884" cy="2.884" r="2.884" transform="translate(133.163 43.622)" fill="#3f3d56"/>
    <circle id="Ellipse_6" data-name="Ellipse 6" cx="2.884" cy="2.884" r="2.884" transform="translate(176.422 19.109)" fill="#3f3d56"/>
    <circle id="Ellipse_7" data-name="Ellipse 7" cx="2.884" cy="2.884" r="2.884" transform="translate(157.677 86.881)" fill="#3f3d56"/>
    <circle id="Ellipse_8" data-name="Ellipse 8" cx="2.884" cy="2.884" r="2.884" transform="translate(140.373 124.372)" fill="#3f3d56"/>
    <circle id="Ellipse_9" data-name="Ellipse 9" cx="2.884" cy="2.884" r="2.884" transform="translate(155.274 137.35)" fill="#3f3d56"/>
    <circle id="Ellipse_10" data-name="Ellipse 10" cx="2.884" cy="2.884" r="2.884" transform="translate(151.909 191.664)" fill="#3f3d56"/>
    <rect id="Rectangle_22" data-name="Rectangle 22" width="87.978" height="74.934" transform="translate(211.113 143.871)" fill="#fff"/>
    <path id="Path_9" data-name="Path 9" d="M810.462,596.359H721.973V520.913h88.489Zm-87.978-.511H809.95V521.424H722.484Z" transform="translate(-511.115 -377.298)" fill="#3f3d56"/>
    <rect id="Rectangle_23" data-name="Rectangle 23" width="21.994" height="60.357" transform="translate(244.105 158.449)" fill="#6c63ff"/>
    <rect id="Rectangle_24" data-name="Rectangle 24" width="21.994" height="60.357" transform="translate(244.105 158.449)" fill="#6c63ff"/>
    <path id="Path_10" data-name="Path 10" d="M439.752,310.763v12.158l87.722,5.616-.259-15Z" transform="translate(-228.383 -161.393)" opacity="0.2"/>
    <rect id="Rectangle_25" data-name="Rectangle 25" width="98.208" height="21.483" transform="translate(205.998 136.966)" fill="#fff"/>
    <path id="Path_11" data-name="Path 11" d="M810.05,528.541H711.331V506.547H810.05Zm-98.208-.511h97.7V507.058h-97.7Z" transform="translate(-505.589 -369.837)" fill="#3f3d56"/>
    <rect id="Rectangle_26" data-name="Rectangle 26" width="21.994" height="23.273" transform="translate(244.105 134.92)" fill="#6c63ff"/>
    <path id="Path_12" data-name="Path 12" d="M784.247,451.185c5.806,8.606.336,22.448.336,22.448s-14.883-.112-20.689-8.718-.336-22.448-.336-22.448S778.441,442.579,784.247,451.185Z" transform="translate(-531.5 -336.557)" fill="#6c63ff"/>
    <path id="Path_13" data-name="Path 13" d="M811.781,451.185c-5.806,8.606-.336,22.448-.336,22.448s14.883-.112,20.689-8.718.336-22.448.336-22.448S817.587,442.579,811.781,451.185Z" transform="translate(-556.37 -336.557)" fill="#6c63ff"/>
    <circle id="Ellipse_11" data-name="Ellipse 11" cx="2.302" cy="2.302" r="2.302" transform="translate(237.455 116.506)" fill="#3f3d56"/>
    <circle id="Ellipse_12" data-name="Ellipse 12" cx="2.302" cy="2.302" r="2.302" transform="translate(251.266 139.779)" fill="#3f3d56"/>
    <circle id="Ellipse_13" data-name="Ellipse 13" cx="2.302" cy="2.302" r="2.302" transform="translate(251.266 190.162)" fill="#3f3d56"/>
    <circle id="Ellipse_14" data-name="Ellipse 14" cx="1.534" cy="1.534" r="1.534" transform="translate(244.36 125.713)" fill="#3f3d56"/>
    <circle id="Ellipse_15" data-name="Ellipse 15" cx="1.534" cy="1.534" r="1.534" transform="translate(267.378 112.67)" fill="#3f3d56"/>
    <circle id="Ellipse_16" data-name="Ellipse 16" cx="1.534" cy="1.534" r="1.534" transform="translate(257.403 148.73)" fill="#3f3d56"/>
    <circle id="Ellipse_17" data-name="Ellipse 17" cx="1.534" cy="1.534" r="1.534" transform="translate(248.197 168.679)" fill="#3f3d56"/>
    <circle id="Ellipse_18" data-name="Ellipse 18" cx="1.534" cy="1.534" r="1.534" transform="translate(256.125 175.584)" fill="#3f3d56"/>
    <circle id="Ellipse_19" data-name="Ellipse 19" cx="1.534" cy="1.534" r="1.534" transform="translate(254.335 204.484)" fill="#3f3d56"/>
    <ellipse id="Ellipse_20" data-name="Ellipse 20" cx="3.249" cy="10.35" rx="3.249" ry="10.35" transform="translate(127.615 178.347) rotate(-64.626)" fill="#2f2e41"/>
    <ellipse id="Ellipse_21" data-name="Ellipse 21" cx="3.249" cy="10.35" rx="3.249" ry="10.35" transform="translate(174.557 187.198) rotate(-39.938)" fill="#2f2e41"/>
    <circle id="Ellipse_22" data-name="Ellipse 22" cx="20.701" cy="20.701" r="20.701" transform="translate(140.974 168.751)" fill="#2f2e41"/>
    <rect id="Rectangle_27" data-name="Rectangle 27" width="6.289" height="11.267" transform="translate(164.147 205.697)" fill="#2f2e41"/>
    <rect id="Rectangle_28" data-name="Rectangle 28" width="6.289" height="11.267" transform="translate(151.57 205.697)" fill="#2f2e41"/>
    <ellipse id="Ellipse_23" data-name="Ellipse 23" cx="5.241" cy="1.965" rx="5.241" ry="1.965" transform="translate(159.955 215.131)" fill="#2f2e41"/>
    <ellipse id="Ellipse_24" data-name="Ellipse 24" cx="5.241" cy="1.965" rx="5.241" ry="1.965" transform="translate(147.377 214.869)" fill="#2f2e41"/>
    <path id="Path_14" data-name="Path 14" d="M605.809,551.025c1.848-7.444,10.007-11.824,18.224-9.784s13.379,9.729,11.53,17.172-7.981,7.468-16.2,5.428S603.96,558.469,605.809,551.025Z" transform="translate(-450.634 -387.595)" fill="#e6e6e6"/>
    <circle id="Ellipse_25" data-name="Ellipse 25" cx="6.902" cy="6.902" r="6.902" transform="translate(151.678 178.182)" fill="#fff"/>
    <circle id="Ellipse_26" data-name="Ellipse 26" cx="2.301" cy="2.301" r="2.301" transform="translate(153.443 180.309)" fill="#3f3d56"/>
    <path id="Path_15" data-name="Path 15" d="M612.361,634.511a4.6,4.6,0,0,1-9.053,1.648h0l0-.009c-.453-2.5,1.481-3.385,3.981-3.838S611.909,632.011,612.361,634.511Z" transform="translate(-449.452 -435.048)" fill="#fff"/>
    <ellipse id="Ellipse_27" data-name="Ellipse 27" cx="10.35" cy="3.249" rx="10.35" ry="3.249" transform="translate(191.477 31.495) rotate(-22.442)" fill="#2f2e41"/>
    <ellipse id="Ellipse_28" data-name="Ellipse 28" cx="3.249" cy="10.35" rx="3.249" ry="10.35" transform="translate(238.485 34.052) rotate(-39.938)" fill="#2f2e41"/>
    <circle id="Ellipse_29" data-name="Ellipse 29" cx="20.701" cy="20.701" r="20.701" transform="translate(204.901 15.606)" fill="#2f2e41"/>
    <rect id="Rectangle_29" data-name="Rectangle 29" width="6.289" height="11.267" transform="translate(228.075 52.552)" fill="#2f2e41"/>
    <rect id="Rectangle_30" data-name="Rectangle 30" width="6.289" height="11.267" transform="translate(215.497 52.552)" fill="#2f2e41"/>
    <ellipse id="Ellipse_30" data-name="Ellipse 30" cx="5.241" cy="1.965" rx="5.241" ry="1.965" transform="translate(223.882 61.985)" fill="#2f2e41"/>
    <ellipse id="Ellipse_31" data-name="Ellipse 31" cx="5.241" cy="1.965" rx="5.241" ry="1.965" transform="translate(211.304 61.723)" fill="#2f2e41"/>
    <path id="Path_16" data-name="Path 16" d="M738.809,232.407c1.849-7.444,10.008-11.824,18.224-9.784s13.379,9.729,11.53,17.173-7.981,7.468-16.2,5.428S736.96,239.851,738.809,232.407Z" transform="translate(-519.707 -222.122)" fill="#6c63ff"/>
    <circle id="Ellipse_32" data-name="Ellipse 32" cx="6.902" cy="6.902" r="6.902" transform="translate(215.605 25.037)" fill="#fff"/>
    <circle id="Ellipse_33" data-name="Ellipse 33" cx="2.301" cy="2.301" r="2.301" transform="translate(217.37 30.528)" fill="#3f3d56"/>
    <path id="Path_17" data-name="Path 17" d="M745.361,315.893a4.6,4.6,0,0,1-9.053,1.648h0l0-.009c-.453-2.5,1.481-3.385,3.981-3.838S744.909,313.393,745.361,315.893Z" transform="translate(-518.525 -269.576)" fill="#fff"/>
    <circle id="Ellipse_34" data-name="Ellipse 34" cx="20.701" cy="20.701" r="20.701" transform="translate(27.79 168.751)" fill="#2f2e41"/>
    <rect id="Rectangle_31" data-name="Rectangle 31" width="6.289" height="11.267" transform="translate(39.057 205.697)" fill="#2f2e41"/>
    <rect id="Rectangle_32" data-name="Rectangle 32" width="6.289" height="11.267" transform="translate(51.635 205.697)" fill="#2f2e41"/>
    <ellipse id="Ellipse_35" data-name="Ellipse 35" cx="5.241" cy="1.965" rx="5.241" ry="1.965" transform="translate(39.057 215.131)" fill="#2f2e41"/>
    <ellipse id="Ellipse_36" data-name="Ellipse 36" cx="5.241" cy="1.965" rx="5.241" ry="1.965" transform="translate(51.635 214.869)" fill="#2f2e41"/>
    <path id="Path_18" data-name="Path 18" d="M342.062,557.528c-1.672-7.486,3.672-15.049,11.934-16.894s16.315,2.728,17.987,10.213-3.8,10.246-12.067,12.091S343.734,565.013,342.062,557.528Z" transform="translate(-313.652 -387.327)" fill="#6c63ff"/>
    <ellipse id="Ellipse_37" data-name="Ellipse 37" cx="11.484" cy="3.605" rx="11.484" ry="3.605" transform="translate(57.579 183.432) rotate(-45.022)" fill="#2f2e41"/>
    <ellipse id="Ellipse_38" data-name="Ellipse 38" cx="3.605" cy="11.484" rx="3.605" ry="11.484" transform="translate(13.019 173.725) rotate(-44.978)" fill="#2f2e41"/>
    <circle id="Ellipse_39" data-name="Ellipse 39" cx="7.075" cy="7.075" r="7.075" transform="translate(40.545 179.443)" fill="#fff"/>
    <circle id="Ellipse_40" data-name="Ellipse 40" cx="2.358" cy="2.358" r="2.358" transform="translate(45.261 184.16)" fill="#3f3d56"/>
    <path id="Path_19" data-name="Path 19" d="M384.187,634.8a4.6,4.6,0,1,1-9.053,1.648h0l0-.009c-.453-2.5,1.481-3.385,3.981-3.838S383.734,632.3,384.187,634.8Z" transform="translate(-330.951 -435.199)" fill="#fff"/>
  </g>
</svg>
